<svg xmlns="http://www.w3.org/2000/svg" viewBox="0 0 200 200">
  <defs>
    <linearGradient id="bgGrad" x1="0%" y1="0%" x2="100%" y2="100%">
      <stop offset="0%" style="stop-color:#FFF5E6;stop-opacity:1" />
      <stop offset="100%" style="stop-color:#FFE8CC;stop-opacity:1" />
    </linearGradient>
    <linearGradient id="bagGrad" x1="0%" y1="0%" x2="100%" y2="100%">
      <stop offset="0%" style="stop-color:#EA580C;stop-opacity:1" />
      <stop offset="100%" style="stop-color:#D84315;stop-opacity:1" />
    </linearGradient>
  </defs>
  
  <rect width="200" height="200" fill="url(#bgGrad)"/>
  
  <!-- Shopping Bag -->
  <g transform="translate(100, 90)">
    <!-- Handles -->
    <path d="M -35 -20 Q -40 -50 -20 -55" stroke="#EA580C" stroke-width="6" fill="none" stroke-linecap="round"/>
    <path d="M 35 -20 Q 40 -50 20 -55" stroke="#EA580C" stroke-width="6" fill="none" stroke-linecap="round"/>
    
    <!-- Bag body -->
    <rect x="-45" y="-15" width="90" height="75" rx="8" fill="url(#bagGrad)" stroke="#D84315" stroke-width="1"/>
    
    <!-- Highlight -->
    <ellipse cx="-15" cy="-5" rx="12" ry="7" fill="#FF8C42" opacity="0.4"/>
    
    <!-- Products -->
    <rect x="-35" y="-5" width="18" height="28" rx="2" fill="#4F46E5" stroke="#fff" stroke-width="1"/>
    <rect x="-10" y="-2" width="20" height="25" rx="2" fill="#06B6D4" stroke="#fff" stroke-width="1"/>
    <rect x="15" y="-8" width="18" height="30" rx="2" fill="#8B5CF6" stroke="#fff" stroke-width="1"/>
    
    <!-- Icons in products -->
    <text x="-26" y="8" font-size="10" fill="#fff" text-anchor="middle">📦</text>
    <text x="0" y="8" font-size="10" fill="#fff" text-anchor="middle">💊</text>
    <text x="24" y="8" font-size="10" fill="#fff" text-anchor="middle">⚕️</text>
  </g>
  
  <!-- Checkmark -->
  <g transform="translate(160, 60)">
    <circle cx="0" cy="0" r="10" fill="#10B981" opacity="0.9"/>
    <path d="M -5 0 L -1 4 L 5 -4" stroke="#fff" stroke-width="2" fill="none" stroke-linecap="round" stroke-linejoin="round"/>
  </g>
</svg>
